<svg xmlns="http://www.w3.org/2000/svg" viewBox="0 0 900 700" role="img" aria-labelledby="title desc">
  <title id="title">Ilustrasi komuniti profesional PESUMA</title>
  <desc id="desc">Sebuah dewan program profesional dengan pentas dan peserta.</desc>
  <defs>
    <linearGradient id="bg" x1="0" y1="0" x2="1" y2="1">
      <stop stop-color="#102E5C"/>
      <stop offset="1" stop-color="#06152E"/>
    </linearGradient>
    <linearGradient id="glow" x1="0" y1="0" x2="1" y2="1">
      <stop stop-color="#F8D477" stop-opacity=".9"/>
      <stop offset="1" stop-color="#D4A017" stop-opacity=".25"/>
    </linearGradient>
  </defs>
  <rect width="900" height="700" rx="46" fill="url(#bg)"/>
  <circle cx="760" cy="95" r="160" fill="#F2B705" opacity=".08"/>
  <circle cx="90" cy="610" r="210" fill="#2D5B99" opacity=".18"/>
  <path d="M0 535c175-75 345-67 510 10 145 68 275 64 390 18v137H0V535Z" fill="#071B3A"/>
  <rect x="180" y="110" width="540" height="290" rx="24" fill="#fff" opacity=".08" stroke="#fff" stroke-opacity=".16"/>
  <rect x="215" y="145" width="470" height="198" rx="16" fill="#071B3A"/>
  <path d="M370 184h160v20H370z" fill="#F2B705"/>
  <path d="M325 230h250v12H325zM355 258h190v9H355zM385 282h130v9H385z" fill="#fff" opacity=".75"/>
  <circle cx="450" cy="325" r="8" fill="#F2B705"/>
  <path d="M265 400h370l40 52H225l40-52Z" fill="url(#glow)" opacity=".75"/>
  <g fill="#BBD0ED">
    <circle cx="183" cy="515" r="34"/><path d="M125 610c0-49 26-78 58-78s58 29 58 78v44H125v-44Z"/>
    <circle cx="330" cy="495" r="38"/><path d="M265 600c0-54 29-86 65-86s65 32 65 86v54H265v-54Z"/>
    <circle cx="570" cy="495" r="38"/><path d="M505 600c0-54 29-86 65-86s65 32 65 86v54H505v-54Z"/>
    <circle cx="717" cy="515" r="34"/><path d="M659 610c0-49 26-78 58-78s58 29 58 78v44H659v-44Z"/>
  </g>
  <g fill="#F2B705">
    <circle cx="450" cy="480" r="44"/><path d="M374 600c0-63 34-100 76-100s76 37 76 100v54H374v-54Z"/>
  </g>
  <path d="m746 152 14 28 31 4.5-22.5 22 5.3 31-27.8-14.7-27.8 14.7 5.3-31-22.5-22 31-4.5 14-28Z" fill="#F2B705" opacity=".8"/>
</svg>
